<svg width="375" height="424" viewBox="0 0 375 424" fill="none" xmlns="http://www.w3.org/2000/svg">
<g filter="url(#filter0_d_27_137)">
<path d="M101.636 321.479C64.9403 311.284 0 260.983 0 260.983V0H375V198.987C346.647 215.018 316.068 244.663 289.386 260.983C238.416 292.157 218.521 318.581 159.212 325.978C131.856 329.39 128.196 328.858 101.636 321.479Z" fill="url(#paint0_linear_27_137)" shape-rendering="crispEdges"/>
</g>
<g clip-path="url(#clip0_27_137)" filter="url(#filter1_d_27_137)">
<path d="M175.078 400.677H164.987C155.927 337.154 146.705 273.453 173.957 249.677L206.099 255.029L201.988 282.935L184.048 303.961L175.078 400.677Z" fill="#5F5F5F"/>
<path d="M183.624 413.799C182.832 414.011 182.004 414.056 181.193 413.931C180.383 413.806 179.608 413.514 178.921 413.075L167.942 411.626C165.583 410.117 163.879 407.802 163.161 405.129C162.442 402.457 162.761 399.617 164.054 397.162C168.704 399.843 172.782 399.469 176.326 396.235C178.83 401.199 182.956 400.896 186.897 405.079C187.419 405.83 187.75 406.693 187.863 407.595C187.977 408.497 187.869 409.413 187.548 410.267C187.228 411.12 186.705 411.885 186.022 412.5C185.339 413.114 184.517 413.56 183.624 413.799V413.799Z" fill="#5F5F5F"/>
<path d="M203.666 402.453H193.574C184.514 338.93 175.292 275.23 202.544 251.454L206.099 253.674V279.877L212.635 305.737L203.666 402.453Z" fill="#5F5F5F"/>
<path d="M212.211 415.575C211.419 415.787 210.591 415.832 209.78 415.708C208.97 415.583 208.195 415.291 207.508 414.851L196.53 413.402C194.17 411.894 192.466 409.578 191.748 406.906C191.03 404.233 191.348 401.394 192.642 398.939C197.291 401.62 201.369 401.246 204.913 398.012C207.418 402.976 211.544 402.673 215.484 406.855C216.006 407.606 216.337 408.469 216.45 409.371C216.564 410.274 216.456 411.19 216.136 412.043C215.815 412.896 215.292 413.662 214.609 414.276C213.927 414.891 213.104 415.336 212.211 415.575V415.575Z" fill="#5F5F5F"/>
<path d="M175.603 187.5C174.36 187.984 173.092 188.395 171.803 188.73C170.101 189.154 169.14 189.351 167.497 188.699C167.439 188.676 167.384 188.653 167.332 188.631C164.218 187.276 161.556 185.023 159.67 182.148C157.784 179.273 156.756 175.898 156.71 172.435C156.702 172.317 156.702 172.192 156.702 172.07C156.7 171.483 156.728 170.896 156.784 170.312C156.856 169.517 156.98 168.727 157.156 167.949L157.14 167.946C155.81 166.554 155.298 164.647 155.467 162.731C155.584 161.432 155.987 160.177 156.645 159.061C157.304 157.944 158.202 156.995 159.272 156.286C160.948 155.207 162.837 154.525 164.803 154.288C165.331 154.225 165.862 154.194 166.393 154.193H171.385C172.417 153.946 173.464 153.777 174.519 153.688H174.527C184.575 152.835 192.498 159.652 191.759 167.946C191.754 167.955 191.746 167.964 191.74 167.973C191.527 168.329 191.338 168.668 191.171 168.99C191.009 169.292 190.872 169.581 190.755 169.855C189.838 171.975 194.195 204.867 192.632 205.367C191.743 205.65 188.157 181.174 188.801 185.829C189.611 191.668 180.231 185.749 175.603 187.5Z" fill="#432F43"/>
<path d="M182.232 188.28L170.463 189.121L162.857 196.643L160.193 197.13C157.798 197.567 155.643 198.888 154.137 200.842C152.631 202.797 151.878 205.249 152.021 207.735C152.569 217.236 153.796 231.433 156.36 236.039C160.337 243.181 163.621 240.94 160.337 243.181C164.517 250.566 163.004 248.357 164.517 251.898C166.031 255.439 161.486 257.671 161.486 257.671L163.651 261.668L164.517 258.116L202.269 263.74C202.269 263.74 198.13 244.695 200.718 240.016C203.307 235.338 209.582 221.196 203.981 215.662L198.505 195.938L189.084 193.094L182.232 188.28Z" fill="black"/>
<path d="M253.474 266.448C252.687 266.422 251.914 266.222 251.209 265.86C250.505 265.499 249.885 264.986 249.394 264.355C248.902 263.725 248.551 262.993 248.363 262.209C248.175 261.426 248.156 260.611 248.306 259.819L225.853 244.256L228.532 236.842L255.068 255.525C256.351 255.884 257.461 256.711 258.188 257.851C258.915 258.991 259.208 260.365 259.011 261.711C258.815 263.057 258.143 264.283 257.122 265.156C256.102 266.029 254.804 266.489 253.474 266.448V266.448Z" fill="#FFB6B6"/>
<path d="M190.054 195.006L186.792 196.329L204.196 231.118L240.228 256.253L245.421 247.269L217.994 223.024L207.013 201.472C205.468 198.438 202.879 196.099 199.747 194.905C196.615 193.711 193.162 193.747 190.054 195.006Z" fill="black"/>
<path d="M175.735 185.221C182.262 185.221 187.553 179.806 187.553 173.126C187.553 166.447 182.262 161.032 175.735 161.032C169.209 161.032 163.918 166.447 163.918 173.126C163.918 179.806 169.209 185.221 175.735 185.221Z" fill="#FFB6B6"/>
<path d="M186.012 168.012C185.815 168.118 185.62 168.216 185.423 168.314C185.218 168.415 185.013 168.516 184.805 168.611C180.85 170.446 177.629 170.65 175.674 168.012C175.621 166.624 175.316 165.258 174.774 163.984C174.87 165.408 174.503 166.824 173.731 168.012H169.796C165.742 170.765 163.662 173.295 166.476 182.334C166.659 182.927 167.915 204.025 168.274 205.647C162.138 203.238 156.844 177.661 156.71 170.922C156.702 170.813 156.702 170.698 156.702 170.586C156.7 170.046 156.728 169.507 156.784 168.97C156.856 168.237 156.981 167.511 157.156 166.796L157.14 166.793C156.516 166.183 156.039 165.431 155.749 164.598C155.459 163.766 155.362 162.875 155.468 161.998C156.497 160.619 157.771 159.45 159.223 158.553C160.543 157.898 161.919 157.37 163.334 156.973C163.369 156.965 163.399 156.956 163.435 156.948C163.867 156.827 164.311 156.718 164.754 156.623C165.668 156.427 166.592 156.284 167.521 156.194C167.59 156.191 167.655 156.186 167.715 156.186C168.087 156.186 168.452 156.289 168.772 156.483C168.775 156.483 168.775 156.486 168.78 156.486C169.087 156.673 169.342 156.939 169.52 157.257C169.698 157.575 169.793 157.934 169.796 158.301H174.18C174.342 158.301 174.503 158.306 174.665 158.315C180.771 158.564 185.678 161.236 185.993 167.379C186.006 167.592 186.012 167.799 186.012 168.012Z" fill="#432F43"/>
<path d="M160.089 168.498C164.389 168.498 167.875 164.931 167.875 160.53C167.875 156.13 164.389 152.562 160.089 152.562C155.79 152.562 152.304 156.13 152.304 160.53C152.304 164.931 155.79 168.498 160.089 168.498Z" fill="#432F43"/>
<path d="M170.778 156.845C169.894 161.151 165.53 163.727 161.355 162.673C159.35 162.167 157.624 160.867 156.556 159.059C155.488 157.25 155.166 155.081 155.66 153.03C156.69 148.757 161.756 149.989 165.083 147.201C169.79 143.258 171.971 151.037 170.778 156.845Z" fill="#432F43"/>
<path d="M153.48 276.719C160.115 249.026 173.263 225.223 195.037 206.574C195.879 205.155 197.237 204.137 198.813 203.741C200.389 203.346 202.053 203.607 203.441 204.466L255.204 236.586C256.59 237.448 257.585 238.838 257.971 240.451C258.358 242.063 258.103 243.767 257.263 245.187C248.953 273.603 236.505 298.261 215.707 315.332C214.864 316.751 213.506 317.769 211.93 318.165C210.355 318.56 208.69 318.299 207.302 317.44L155.54 285.32C154.153 284.458 153.158 283.068 152.772 281.455C152.386 279.843 152.64 278.139 153.48 276.719V276.719Z" fill="#F2F2F2"/>
<path opacity="0.2" d="M162.68 286.051C161.294 285.189 160.298 283.799 159.912 282.187C159.526 280.574 159.781 278.87 160.62 277.45C167.255 249.757 180.403 225.954 202.177 207.305C202.735 206.377 203.522 205.615 204.46 205.098L203.441 204.466C202.053 203.607 200.389 203.346 198.813 203.741C197.237 204.137 195.879 205.155 195.037 206.574C173.263 225.223 160.115 249.026 153.48 276.719C152.64 278.139 152.386 279.843 152.772 281.455C153.158 283.068 154.153 284.458 155.54 285.32L207.302 317.44C208.223 318.007 209.274 318.315 210.35 318.333C211.425 318.35 212.485 318.076 213.423 317.539L162.68 286.051Z" fill="black"/>
<path d="M223.384 270.579L188.639 249.154C188.087 248.812 187.689 248.261 187.535 247.62C187.38 246.979 187.48 246.302 187.813 245.736C188.145 245.171 188.684 244.764 189.31 244.605C189.936 244.445 190.598 244.547 191.151 244.887L225.896 266.312C226.447 266.654 226.842 267.206 226.996 267.846C227.15 268.486 227.05 269.163 226.718 269.727C226.385 270.292 225.848 270.699 225.223 270.858C224.598 271.018 223.936 270.918 223.384 270.579L223.384 270.579Z" fill="white"/>
<path d="M203.171 242.167L195.527 237.453C194.973 237.114 194.574 236.564 194.416 235.923C194.259 235.282 194.357 234.604 194.688 234.037C195.02 233.47 195.558 233.061 196.184 232.9C196.81 232.739 197.473 232.839 198.026 233.178L198.04 233.186L205.684 237.9C206.234 238.242 206.63 238.793 206.784 239.434C206.939 240.074 206.838 240.75 206.506 241.315C206.173 241.88 205.636 242.287 205.011 242.446C204.386 242.606 203.724 242.506 203.171 242.167V242.167Z" fill="white"/>
<path d="M217.862 279.959L183.116 258.533C182.564 258.193 182.166 257.642 182.01 257.001C181.854 256.36 181.954 255.682 182.286 255.117C182.618 254.551 183.156 254.143 183.782 253.983C184.408 253.823 185.07 253.924 185.624 254.263L185.629 254.266L220.374 275.692C220.924 276.034 221.32 276.585 221.474 277.226C221.628 277.866 221.528 278.542 221.196 279.107C220.863 279.672 220.326 280.078 219.701 280.238C219.076 280.398 218.414 280.297 217.862 279.959L217.862 279.959Z" fill="white"/>
<path d="M210.303 331.085C222.282 331.085 231.994 321.146 231.994 308.886C231.994 296.626 222.282 286.687 210.303 286.687C198.324 286.687 188.613 296.626 188.613 308.886C188.613 321.146 198.324 331.085 210.303 331.085Z" fill="white"/>
<path d="M207.344 320.44C206.969 320.44 206.6 320.35 206.265 320.179C205.93 320.007 205.639 319.758 205.414 319.452L199.496 311.377C199.306 311.117 199.167 310.822 199.089 310.508C199.01 310.193 198.992 309.866 199.037 309.545C199.082 309.224 199.188 308.915 199.349 308.636C199.511 308.357 199.724 308.113 199.978 307.918C200.231 307.723 200.52 307.582 200.827 307.501C201.134 307.421 201.454 307.403 201.768 307.449C202.082 307.495 202.383 307.604 202.656 307.77C202.929 307.935 203.167 308.154 203.357 308.414L207.228 313.696L217.172 298.432C217.347 298.162 217.573 297.93 217.837 297.75C218.1 297.57 218.395 297.444 218.706 297.38C219.017 297.317 219.337 297.316 219.647 297.379C219.958 297.442 220.254 297.567 220.518 297.747C220.781 297.927 221.008 298.158 221.184 298.428C221.36 298.697 221.483 298.999 221.545 299.317C221.607 299.635 221.608 299.963 221.546 300.281C221.485 300.599 221.363 300.902 221.187 301.171L209.352 319.34C209.138 319.668 208.85 319.94 208.512 320.131C208.174 320.322 207.797 320.428 207.411 320.439C207.389 320.439 207.366 320.44 207.344 320.44Z" fill="#5F5F5F"/>
<path d="M156.707 277.012C155.934 276.688 155.239 276.195 154.669 275.569C154.1 274.942 153.671 274.197 153.411 273.384C153.151 272.571 153.066 271.71 153.164 270.86C153.261 270.011 153.537 269.193 153.973 268.463L137.3 244.476L142.649 238.125L162.249 266.763C163.394 267.606 164.198 268.85 164.507 270.259C164.816 271.667 164.609 273.143 163.926 274.407C163.243 275.67 162.131 276.633 160.801 277.113C159.47 277.593 158.014 277.557 156.707 277.012H156.707Z" fill="#FFB6B6"/>
<path d="M157.09 200.997C156.247 200.489 155.254 200.305 154.29 200.479C153.326 200.653 152.454 201.172 151.831 201.945L129.302 234.19L150.181 264.538L158.35 255.557L145.642 235.119L162.531 218.662C163.919 215.55 164.131 212.022 163.127 208.76C162.122 205.497 159.971 202.732 157.09 200.997V200.997Z" fill="black"/>
</g>
<defs>
<filter id="filter0_d_27_137" x="-22" y="-22" width="419" height="372" filterUnits="userSpaceOnUse" color-interpolation-filters="sRGB">
<feFlood flood-opacity="0" result="BackgroundImageFix"/>
<feColorMatrix in="SourceAlpha" type="matrix" values="0 0 0 0 0 0 0 0 0 0 0 0 0 0 0 0 0 0 127 0" result="hardAlpha"/>
<feOffset/>
<feGaussianBlur stdDeviation="11"/>
<feComposite in2="hardAlpha" operator="out"/>
<feColorMatrix type="matrix" values="0 0 0 0 0 0 0 0 0 0 0 0 0 0 0 0 0 0 0.17 0"/>
<feBlend mode="normal" in2="BackgroundImageFix" result="effect1_dropShadow_27_137"/>
<feBlend mode="normal" in="SourceGraphic" in2="effect1_dropShadow_27_137" result="shape"/>
</filter>
<filter id="filter1_d_27_137" x="125" y="146" width="138" height="284" filterUnits="userSpaceOnUse" color-interpolation-filters="sRGB">
<feFlood flood-opacity="0" result="BackgroundImageFix"/>
<feColorMatrix in="SourceAlpha" type="matrix" values="0 0 0 0 0 0 0 0 0 0 0 0 0 0 0 0 0 0 127 0" result="hardAlpha"/>
<feOffset dy="4"/>
<feGaussianBlur stdDeviation="2"/>
<feComposite in2="hardAlpha" operator="out"/>
<feColorMatrix type="matrix" values="0 0 0 0 0 0 0 0 0 0 0 0 0 0 0 0 0 0 0.25 0"/>
<feBlend mode="normal" in2="BackgroundImageFix" result="effect1_dropShadow_27_137"/>
<feBlend mode="normal" in="SourceGraphic" in2="effect1_dropShadow_27_137" result="shape"/>
</filter>
<linearGradient id="paint0_linear_27_137" x1="-19.0254" y1="28.4981" x2="269.904" y2="356.878" gradientUnits="userSpaceOnUse">
<stop stop-color="#B035A4"/>
<stop offset="0.887867" stop-color="#3A00E0" stop-opacity="0.66"/>
</linearGradient>
<clipPath id="clip0_27_137">
<rect width="130" height="276" fill="white" transform="translate(129 146)"/>
</clipPath>
</defs>
</svg>
